HIERARCHY
ROOT Hips
{
	OFFSET 0.000000 8.830580 0.000000
	CHANNELS 6 Xposition Yposition Zposition Zrotation Yrotation Xrotation 
	JOINT Spine
	{
		OFFSET 0.000000 0.010000 0.000000
		CHANNELS 3 Zrotation Yrotation Xrotation
		JOINT Spine1
		{
			OFFSET 0.000000 2.459130 0.000000
			CHANNELS 3 Zrotation Yrotation Xrotation
			JOINT Neck
			{
				OFFSET 0.000000 2.484630 0.000000
				CHANNELS 3 Zrotation Yrotation Xrotation
				JOINT Head_virtual
				{
					OFFSET 0.000000 0.000000 0.000000
					CHANNELS 3 Zrotation Yrotation Xrotation
					JOINT Head
					{
						OFFSET 0.000000 0.927525 0.000000
						CHANNELS 3 Zrotation Yrotation Xrotation
						End Site
						{
							OFFSET 0.000000 0.000000 0.000000
						}
					}
				}
				JOINT LeftUpArm_virtual
				{
					OFFSET 0.000000 0.000000 0.000000
					CHANNELS 3 Zrotation Yrotation Xrotation
					JOINT LeftUpArm
					{
						OFFSET 1.248820 0.000000 0.000000
						CHANNELS 3 Zrotation Yrotation Xrotation
						JOINT LeftForeArm
						{
							OFFSET 2.597580 0.000000 0.000000
							CHANNELS 3 Zrotation Yrotation Xrotation
							JOINT LeftHand
							{
								OFFSET 2.455420 0.000000 0.000000
								CHANNELS 3 Zrotation Yrotation Xrotation
								End Site
								{
									OFFSET 0.000000 0.000000 0.000000
								}
							}
						}
					}
				}
				JOINT RightUpArm_virtual
				{
					OFFSET -0.000000 -0.000000 -0.000000
					CHANNELS 3 Zrotation Yrotation Xrotation
					JOINT RightUpArm
					{
						OFFSET -1.248820 -0.000000 -0.000000
						CHANNELS 3 Zrotation Yrotation Xrotation
						JOINT RightForeArm
						{
							OFFSET -2.597580 -0.000000 -0.000000
							CHANNELS 3 Zrotation Yrotation Xrotation
							JOINT RightHand
							{
								OFFSET -2.455420 -0.000000 -0.000000
								CHANNELS 3 Zrotation Yrotation Xrotation
								End Site
								{
									OFFSET 0.000000 0.000000 0.000000
								}
							}
						}
					}
				}
			}
		}
	}
	JOINT LeftUpLeg
	{
		OFFSET 1.271939 0.000000 0.000000
		CHANNELS 3 Zrotation Yrotation Xrotation
		JOINT LeftLowLeg
		{
			OFFSET 0.000000 -4.342910 0.000000
			CHANNELS 3 Zrotation Yrotation Xrotation
			JOINT LeftFoot
			{
				OFFSET 0.000000 -4.487670 0.000000
				CHANNELS 3 Zrotation Yrotation Xrotation
				JOINT LeftToeBase
				{
					OFFSET 0.000000 0.000000 1.515070
					CHANNELS 3 Zrotation Yrotation Xrotation
					End Site
					{
						OFFSET 0.000000 0.000000 0.000000
					}
				}
			}
		}
	}
	JOINT RightUpLeg
	{
		OFFSET -1.271939 0.000000 0.000000
		CHANNELS 3 Zrotation Yrotation Xrotation
		JOINT RightLowLeg
		{
			OFFSET 0.000000 -4.342910 0.000000
			CHANNELS 3 Zrotation Yrotation Xrotation
			JOINT RightFoot
			{
				OFFSET 0.000000 -4.487670 0.000000
				CHANNELS 3 Zrotation Yrotation Xrotation
				JOINT RightToeBase
				{
					OFFSET 0.000000 0.000000 1.515070
					CHANNELS 3 Zrotation Yrotation Xrotation
					End Site
					{
						OFFSET 0.000000 0.000000 0.000000
					}
				}
			}
		}
	}
}
MOTION
Frames: 8
Frame Time: 0.041667
-18.667118 9.162623 39.437270 -174.250638 3.365979 -173.966724 4.197378 0.513309 -6.716821 1.019912 0.737809 -12.390744 0.000000 0.000000 0.000000 -4.123190 -5.333912 26.633063 16.347475 10.053682 -88.391732 -23.102501 8.971720 -15.628800 16.050400 -11.065000 -31.455900 0.000000 -4.943990 0.000000 23.817801 9.239220 19.365499 22.666500 -8.614980 -9.262640 -18.468399 -0.900925 -47.791401 0.000000 15.353500 0.000000 -25.857000 -13.916700 55.059502 4.100155 4.704118 -3.458023 0.000000 0.000000 8.112600 -16.833489 10.349891 -1.021219 0.000000 0.000000 -25.534300 6.827580 1.248500 -3.249112 0.000000 0.000000 8.543400 15.275736 -20.628136 3.478678 0.000000 0.000000 -33.582899 
-18.667628 9.162395 39.437004 -174.246113 3.419685 -173.965170 4.092502 0.468719 -7.074318 1.258437 0.696457 -11.742380 0.000000 0.000000 0.000000 -4.238136 -5.210470 26.494117 16.341147 10.001812 -88.510481 -23.324900 8.939300 -15.875500 16.123100 -11.044400 -31.559999 0.000000 -4.994030 0.000000 23.825399 9.313230 19.518499 22.643000 -8.372930 -9.435290 -18.507900 -0.879313 -47.691399 0.000000 15.380100 0.000000 -25.925699 -13.779800 55.153099 4.096679 4.770785 -3.430600 0.000000 0.000000 8.081120 -16.842405 10.333083 -1.024619 0.000000 0.000000 -25.530700 6.823559 1.293423 -3.253590 0.000000 0.000000 8.549420 15.269561 -20.625227 3.479360 0.000000 0.000000 -33.562099 
-18.668154 9.162347 39.439391 -174.242164 3.378946 -173.950801 4.092752 0.445257 -7.046654 1.242762 0.673330 -11.781725 0.000000 0.000000 0.000000 -4.221706 -5.229450 26.558919 16.315799 10.013877 -88.488896 -23.315901 8.924820 -15.867100 16.114401 -11.072200 -31.445900 0.000000 -5.027970 0.000000 23.935699 9.333810 19.758499 22.632099 -8.384270 -9.396130 -18.495501 -0.865849 -47.452202 0.000000 15.405200 0.000000 -25.919500 -13.769500 54.824902 4.099382 4.708748 -3.482468 0.000000 0.000000 8.108900 -16.842598 10.353148 -1.034850 0.000000 0.000000 -25.533800 6.829342 1.216537 -3.286282 0.000000 0.000000 8.552640 15.259144 -20.602444 3.494974 0.000000 0.000000 -33.532600 
-18.668634 9.162389 39.439280 -174.235932 3.444958 -173.933993 4.088815 0.475728 -7.085825 1.227000 0.705258 -11.746103 0.000000 0.000000 0.000000 -4.187922 -5.283963 26.612493 16.262696 10.028405 -88.463739 -23.300400 8.912000 -15.836100 16.097799 -11.097400 -31.393900 0.000000 -5.051350 0.000000 24.095301 9.320840 19.984800 22.655001 -8.403040 -9.358160 -18.519800 -0.817988 -47.472301 0.000000 15.369800 0.000000 -25.860300 -13.680300 55.029202 4.094777 4.791710 -3.460088 0.000000 0.000000 8.061640 -16.830778 10.345083 -1.023846 0.000000 0.000000 -25.505200 6.825335 1.279735 -3.292062 0.000000 0.000000 8.529860 15.266563 -20.602424 3.510789 0.000000 0.000000 -33.530701 
-18.669698 9.162336 39.443216 -174.229300 3.463629 -173.958763 4.094080 0.486121 -6.988663 1.206542 0.716047 -11.804735 0.000000 0.000000 0.000000 -4.155218 -5.337503 26.662505 16.246783 10.041603 -88.445434 -23.294500 8.900470 -15.798000 16.093800 -11.111100 -31.373199 0.000000 -5.063990 0.000000 24.158600 9.282270 20.103399 22.660601 -8.380540 -9.372800 -18.514900 -0.844509 -47.484600 0.000000 15.370100 0.000000 -25.638201 -13.757700 55.116402 4.093512 4.763317 -3.468795 0.000000 0.000000 8.086130 -16.828170 10.389929 -1.038834 0.000000 0.000000 -25.513000 6.824079 1.314416 -3.286476 0.000000 0.000000 8.519410 15.290137 -20.610341 3.514391 0.000000 0.000000 -33.501499 
-18.669782 9.162343 39.444624 -174.216517 3.469513 -173.920267 4.045743 0.475940 -7.103136 1.286912 0.710389 -11.652608 0.000000 0.000000 0.000000 -4.177043 -5.323402 26.680470 16.270638 10.023006 -88.452208 -23.366899 8.874900 -15.852600 16.123400 -11.117600 -31.235500 0.000000 -5.065220 0.000000 24.216101 9.251340 20.078100 22.655899 -8.340500 -9.372180 -18.506800 -0.854891 -47.635700 0.000000 15.358400 0.000000 -25.350700 -13.965600 55.098499 4.102180 4.730242 -3.513612 0.000000 0.000000 8.085920 -16.855744 10.419348 -1.062319 0.000000 0.000000 -25.505100 6.836758 1.325471 -3.306136 0.000000 0.000000 8.468460 15.259722 -20.628784 3.545383 0.000000 0.000000 -33.478399 
-18.670166 9.162196 39.446554 -174.210239 3.487990 -173.914687 4.028127 0.479823 -7.123331 1.278906 0.717098 -11.596120 0.000000 0.000000 0.000000 -4.156514 -5.342348 26.710084 16.317205 10.022780 -88.410278 -23.368700 8.869220 -15.834900 16.140900 -11.126300 -31.189899 0.000000 -5.084400 0.000000 24.158501 9.238800 20.357599 22.673300 -8.304880 -9.328900 -18.500799 -0.922206 -47.802399 0.000000 15.223000 0.000000 -24.759399 -14.192800 54.603100 4.102778 4.733550 -3.520613 0.000000 0.000000 8.073100 -16.828735 10.443045 -1.062095 0.000000 0.000000 -25.516000 6.839735 1.334265 -3.292244 0.000000 0.000000 8.405800 15.230119 -20.630288 3.579086 0.000000 0.000000 -33.496799 
-18.670226 9.162144 39.447842 -174.213021 3.497350 -173.920535 4.008891 0.483438 -7.119145 1.268960 0.724289 -11.570337 0.000000 0.000000 0.000000 -4.128629 -5.378125 26.736938 16.321336 10.041263 -88.406069 -23.368700 8.863170 -15.795400 16.155399 -11.131900 -31.178101 0.000000 -5.067610 0.000000 24.187000 9.196570 20.552200 22.675100 -8.321650 -9.343160 -18.454500 -0.918811 -47.816799 0.000000 15.171400 0.000000 -24.610901 -14.304700 54.638000 4.101141 4.711698 -3.515244 0.000000 0.000000 8.063350 -16.816172 10.465363 -1.055662 0.000000 0.000000 -25.532000 6.834986 1.272767 -3.292023 0.000000 0.000000 8.399560 15.212751 -20.570496 3.602252 0.000000 0.000000 -33.527901 
